<?xml version="1.0" encoding="utf-8"?>
<!-- Generator: Adobe Illustrator 22.1.0, SVG Export Plug-In . SVG Version: 6.00 Build 0)  -->
<svg version="1.1" id="Слой_1" xmlns="http://www.w3.org/2000/svg" xmlns:xlink="http://www.w3.org/1999/xlink" x="0px" y="0px"
	 viewBox="0 0 80.1 79.5" style="enable-background:new 0 0 80.1 79.5;" xml:space="preserve">
<style type="text/css">
	.st0{fill:#FFFFFF;stroke:#5E646B;stroke-width:2;stroke-linecap:round;stroke-linejoin:round;stroke-miterlimit:10;}
	.st1{fill:none;stroke:#5E646B;stroke-linecap:round;stroke-linejoin:round;stroke-miterlimit:10;}
	.st2{fill:#5E646B;}
	.st3{fill:#7FC676;}
	.st4{fill:#7FC676;stroke:#5E646B;stroke-linecap:round;stroke-linejoin:round;stroke-miterlimit:10;}
</style>
<g>
	<path class="st0" d="M72.5,48.5L72.4,3.7c0-2.1-1.9-3.7-4.2-3.7L4.1,0.2C1.7,0.2-0.2,1.9-0.2,4L0,72.7c0,2.1,1.9,3.8,4.3,3.8
		l44.1-0.1"/>
	<line class="st1" x1="-0.2" y1="8.3" x2="71.4" y2="8.1"/>
	<line class="st1" x1="10.4" y1="18.5" x2="50.6" y2="18.3"/>
	<line class="st1" x1="10.4" y1="22.8" x2="35.4" y2="22.8"/>
	<g>
		<line class="st1" x1="10.6" y1="31.7" x2="40.9" y2="31.6"/>
		<line class="st1" x1="10.6" y1="36.7" x2="40.9" y2="36.6"/>
		<line class="st1" x1="10.6" y1="41.6" x2="40.9" y2="41.5"/>
		<line class="st1" x1="10.6" y1="46.5" x2="40.9" y2="46.4"/>
		<line class="st1" x1="10.6" y1="51.4" x2="40.9" y2="51.3"/>
	</g>
	<path class="st2" d="M25.8,60.3l-14.9,0c-0.4,0-0.7-0.3-0.7-0.7l0-1.1c0-0.4,0.3-0.7,0.7-0.7l14.9,0c0.4,0,0.7,0.3,0.7,0.7l0,1.1
		C26.5,60,26.2,60.3,25.8,60.3z"/>
	<polygon class="st3" points="65.7,55.2 57.9,55.9 47.5,61.2 49.6,68.3 65.7,69.3 	"/>
	
		<ellipse transform="matrix(0.9996 -2.957747e-02 2.957747e-02 0.9996 -1.8292 1.5663)" class="st3" cx="52" cy="62.6" rx="4.2" ry="6.9"/>
	
		<ellipse transform="matrix(0.9995 -3.042348e-02 3.042348e-02 0.9995 -1.9027 2.1204)" class="st3" cx="68.7" cy="63.6" rx="6.1" ry="7.4"/>
	<g>
		<path class="st4" d="M47.2,61.5c-0.1-0.5-0.2-1-0.2-1.5c0-4.2,3.4-7.6,7.7-7.7c2.6,0,5,1.3,6.4,3.3"/>
		<path class="st4" d="M75,61.4c0.1-0.5,0.2-1,0.2-1.5c0-4.2-3.5-7.6-7.7-7.6c-2.6,0-4.9,1.3-6.3,3.3"/>
	</g>
	<polyline class="st4" points="74.3,68.1 61.5,79.5 48.8,68.2 	"/>
	<g>
		<line class="st1" x1="43.1" y1="65.3" x2="48.8" y2="65.3"/>
		<polyline class="st1" points="52,65.3 53.4,64 55.6,67.3 60.4,59.4 62.7,69.6 63.8,66.9 		"/>
		<polyline class="st1" points="65.7,65.2 67.9,65.2 69.1,63 71.2,66.5 72.3,64.8 79.3,64.7 		"/>
	</g>
</g>
</svg>
