<?xml version="1.0" encoding="utf-8"?>
<!-- Generator: Adobe Illustrator 22.1.0, SVG Export Plug-In . SVG Version: 6.00 Build 0)  -->
<svg version="1.1" id="Слой_1" xmlns="http://www.w3.org/2000/svg" xmlns:xlink="http://www.w3.org/1999/xlink" x="0px" y="0px"
	 viewBox="0 0 76.7 80" style="enable-background:new 0 0 76.7 80;" xml:space="preserve">
<style type="text/css">
	.st0{fill:#EDF7F1;}
	.st1{fill:#FFFFFF;stroke:#5E646B;stroke-width:2;stroke-linecap:round;stroke-linejoin:round;stroke-miterlimit:10;}
	.st2{fill:none;stroke:#5E646B;stroke-linecap:round;stroke-linejoin:round;stroke-miterlimit:10;}
	.st3{fill:#7FC676;stroke:#5E646B;stroke-linecap:round;stroke-linejoin:round;stroke-miterlimit:10;}
	.st4{fill:#FFFFFF;}
	.st5{fill:#5E646B;}
</style>
<g>
	<line class="st0" x1="65.8" y1="78" x2="41.4" y2="78.1"/>
	<path class="st1" d="M73.4,50.1l-0.1-45c0-2.1-1.9-3.7-4.2-3.7L5.3,1.5C3,1.5,1.1,3.2,1.1,5.4l0.1,69c0,2.1,1.9,3.9,4.3,3.8
		l43.9-0.1"/>
	<line class="st2" x1="1.1" y1="9.7" x2="72.3" y2="9.5"/>
	<line class="st2" x1="12.4" y1="54.6" x2="32" y2="54.5"/>
	<line class="st2" x1="12.7" y1="59.4" x2="40.9" y2="59.4"/>
	<line class="st2" x1="12.5" y1="64.3" x2="35.5" y2="64.2"/>
	<circle class="st3" cx="60.7" cy="64.1" r="12.5"/>
	<line class="st2" x1="69.8" y1="72.9" x2="75.9" y2="79"/>
	<g>
		<path class="st3" d="M16.8,36.1l0-1.2c0-1.1,0.2-2,0.7-2.7c0.4-0.8,1.3-1.6,2.5-2.5c1.2-0.8,1.9-1.5,2.3-2
			c0.4-0.5,0.5-1.1,0.5-1.7c0-0.7-0.3-1.3-0.8-1.6c-0.5-0.4-1.3-0.6-2.2-0.6c-1.6,0-3.5,0.5-5.6,1.6l-1.8-3.6c2.4-1.4,5-2.1,7.8-2.1
			c2.3,0,4.1,0.5,5.4,1.6c1.3,1.1,2,2.5,2,4.3c0,1.2-0.3,2.2-0.8,3.1c-0.5,0.9-1.6,1.9-3.1,3c-1.1,0.8-1.7,1.4-2,1.8
			c-0.3,0.4-0.4,0.9-0.4,1.6l0,1L16.8,36.1z M16.2,41.7c0-0.9,0.2-1.6,0.7-2.1s1.2-0.7,2.2-0.7c0.9,0,1.6,0.2,2.1,0.7
			c0.5,0.5,0.8,1.2,0.8,2.1c0,0.9-0.2,1.6-0.8,2c-0.5,0.5-1.2,0.8-2.1,0.8c-0.9,0-1.6-0.2-2.1-0.7C16.5,43.3,16.2,42.6,16.2,41.7z"
			/>
	</g>
	<g>
		<polyline class="st4" points="31.9,31.5 45.8,31.5 48.6,23.7 52.3,36.9 55.8,31.5 62.3,31.5 		"/>
		<path class="st5" d="M31.9,31.5c4.6-0.5,9.3-0.7,13.9-0.9L45,31.2c0.9-2.6,1.7-5.3,2.7-7.9c0.2-0.5,0.7-0.8,1.3-0.6
			c0.3,0.1,0.5,0.4,0.6,0.6l0,0c0.7,2.2,1.2,4.4,1.8,6.6c0.3,1.1,0.6,2.2,0.9,3.3c0.3,1.1,0.6,2.2,0.8,3.3l-1.5-0.2
			c1.2-1.8,2.5-3.6,3.7-5.3l0-0.1c0.1-0.1,0.2-0.2,0.4-0.2c2.2,0.1,4.3,0.3,6.5,0.5c-2.2,0.2-4.3,0.4-6.5,0.5l0.4-0.2
			c-1.1,1.9-2.1,3.8-3.2,5.6c-0.2,0.4-0.7,0.5-1.1,0.3c-0.2-0.1-0.3-0.3-0.4-0.4l0-0.1c-0.4-1.1-0.7-2.2-1-3.3
			c-0.3-1.1-0.7-2.2-1-3.3c-0.6-2.2-1.3-4.4-1.9-6.6l1.9,0.1c-0.9,2.6-1.9,5.2-2.9,7.8l0,0c-0.1,0.3-0.4,0.5-0.8,0.5
			C41.2,32.2,36.5,32,31.9,31.5z"/>
	</g>
	<polyline class="st2" points="66.3,59.5 59.2,69.3 55.8,64.4 	"/>
</g>
</svg>
