<?xml version="1.0" encoding="utf-8"?>
<!-- Generator: Adobe Illustrator 22.1.0, SVG Export Plug-In . SVG Version: 6.00 Build 0)  -->
<svg version="1.1" id="Слой_1" xmlns="http://www.w3.org/2000/svg" xmlns:xlink="http://www.w3.org/1999/xlink" x="0px" y="0px"
	 viewBox="0 0 71.5 80.8" style="enable-background:new 0 0 71.5 80.8;" xml:space="preserve">
<style type="text/css">
	.st0{fill:#FFFFFF;stroke:#5E646B;stroke-width:2;stroke-linecap:round;stroke-linejoin:round;stroke-miterlimit:10;}
	.st1{fill:none;stroke:#5E646B;stroke-linecap:round;stroke-linejoin:round;stroke-miterlimit:10;}
</style>
<g>
	<path class="st0" d="M65.5,79.4L5.7,79.3c-2.6,0-4.7-2.1-4.7-4.8L1.1,6.1c0-2.6,2.1-4.7,4.8-4.7l59.7,0.1c2.6,0,4.7,2.1,4.7,4.8
		l-0.1,68.4C70.2,77.3,68.1,79.4,65.5,79.4z"/>
	<line class="st1" x1="18.7" y1="16.2" x2="52.6" y2="16.3"/>
	<line class="st1" x1="7.9" y1="21.9" x2="29.5" y2="22"/>
	<line class="st1" x1="47.6" y1="22" x2="63.6" y2="22"/>
	<line class="st1" x1="1.9" y1="8.7" x2="70.3" y2="8.8"/>
	<g>
		<line class="st1" x1="8.2" y1="27.6" x2="18.6" y2="27.7"/>
		<line class="st1" x1="23.4" y1="27.7" x2="33.8" y2="27.7"/>
		<line class="st1" x1="38.5" y1="27.7" x2="49" y2="27.7"/>
		<line class="st1" x1="53.7" y1="27.7" x2="64.1" y2="27.7"/>
	</g>
	<g>
		<line class="st1" x1="8.2" y1="32.2" x2="18.6" y2="32.2"/>
		<line class="st1" x1="23.3" y1="32.2" x2="33.8" y2="32.3"/>
		<line class="st1" x1="38.5" y1="32.3" x2="49" y2="32.3"/>
		<line class="st1" x1="53.7" y1="32.3" x2="64.1" y2="32.3"/>
	</g>
	<g>
		<line class="st1" x1="8.2" y1="36.8" x2="18.6" y2="36.8"/>
		<line class="st1" x1="23.3" y1="36.8" x2="33.8" y2="36.8"/>
		<line class="st1" x1="38.5" y1="36.9" x2="48.9" y2="36.9"/>
		<line class="st1" x1="53.7" y1="36.9" x2="64.1" y2="36.9"/>
	</g>
	<g>
		<line class="st1" x1="8.2" y1="41.4" x2="18.6" y2="41.4"/>
		<line class="st1" x1="23.3" y1="41.4" x2="33.8" y2="41.4"/>
		<line class="st1" x1="38.5" y1="41.4" x2="48.9" y2="41.5"/>
		<line class="st1" x1="53.6" y1="41.5" x2="64.1" y2="41.5"/>
	</g>
	<g>
		<line class="st1" x1="8.2" y1="46" x2="18.6" y2="46"/>
		<line class="st1" x1="23.3" y1="46" x2="33.8" y2="46"/>
		<line class="st1" x1="38.5" y1="46" x2="48.9" y2="46"/>
		<line class="st1" x1="53.6" y1="46" x2="64.1" y2="46.1"/>
	</g>
	<g>
		<line class="st1" x1="8.2" y1="50.6" x2="18.6" y2="50.6"/>
		<line class="st1" x1="23.3" y1="50.6" x2="33.8" y2="50.6"/>
		<line class="st1" x1="38.5" y1="50.6" x2="48.9" y2="50.6"/>
		<line class="st1" x1="53.6" y1="50.6" x2="64.1" y2="50.6"/>
	</g>
	<g>
		<line class="st1" x1="8.2" y1="55.1" x2="18.6" y2="55.2"/>
		<line class="st1" x1="23.3" y1="55.2" x2="33.8" y2="55.2"/>
		<line class="st1" x1="38.5" y1="55.2" x2="48.9" y2="55.2"/>
		<line class="st1" x1="53.6" y1="55.2" x2="64.1" y2="55.2"/>
	</g>
	<g>
		<line class="st1" x1="8.2" y1="59.7" x2="18.6" y2="59.7"/>
		<line class="st1" x1="23.3" y1="59.8" x2="33.8" y2="59.8"/>
		<line class="st1" x1="38.5" y1="59.8" x2="48.9" y2="59.8"/>
		<line class="st1" x1="53.6" y1="59.8" x2="64.1" y2="59.8"/>
	</g>
	<g>
		<line class="st1" x1="8.1" y1="64.3" x2="18.6" y2="64.3"/>
		<line class="st1" x1="23.3" y1="64.3" x2="33.8" y2="64.4"/>
		<line class="st1" x1="38.5" y1="64.4" x2="48.9" y2="64.4"/>
		<line class="st1" x1="53.6" y1="64.4" x2="64.1" y2="64.4"/>
	</g>
	<g>
		<line class="st1" x1="8.1" y1="68.9" x2="18.6" y2="68.9"/>
		<line class="st1" x1="23.3" y1="68.9" x2="33.7" y2="68.9"/>
		<line class="st1" x1="38.5" y1="68.9" x2="48.9" y2="69"/>
		<line class="st1" x1="53.6" y1="69" x2="64.1" y2="69"/>
	</g>
</g>
</svg>
