<?xml version="1.0" encoding="utf-8"?>
<!-- Generator: Adobe Illustrator 22.1.0, SVG Export Plug-In . SVG Version: 6.00 Build 0)  -->
<svg version="1.1" id="Слой_1" xmlns="http://www.w3.org/2000/svg" xmlns:xlink="http://www.w3.org/1999/xlink" x="0px" y="0px"
	 viewBox="0 0 76.7 80" style="enable-background:new 0 0 76.7 80;" xml:space="preserve">
<style type="text/css">
	.st0{fill:#FFFFFF;stroke:#5E646B;stroke-width:2;stroke-linecap:round;stroke-linejoin:round;stroke-miterlimit:10;}
	.st1{fill:none;stroke:#5E646B;stroke-linecap:round;stroke-linejoin:round;stroke-miterlimit:10;}
	.st2{fill:#EDF7F1;}
	.st3{fill:#7FC676;}
	.st4{fill:#7FC676;stroke:#5E646B;stroke-linecap:round;stroke-linejoin:round;stroke-miterlimit:10;}
	.st5{fill:#5E646B;}
</style>
<g>
	<path class="st0" d="M73.3,49.9l0-44.9c0-2.1-1.9-3.7-4.1-3.7l-63.7,0C3.1,1.3,1.2,3,1.2,5.1l0,68.8c0,2.1,1.9,3.8,4.3,3.8l43.8,0"
		/>
	<line class="st1" x1="1.2" y1="9.4" x2="72.3" y2="9.4"/>
	<g>
		<line class="st2" x1="65.7" y1="77.7" x2="41.3" y2="77.7"/>
		<circle class="st3" cx="62.8" cy="66" r="12.9"/>
		<path class="st4" d="M75.8,65.9c0,7.4-6,13.3-13.3,13.3s-13.3-6-13.3-13.3s6-13.3,13.3-13.3"/>
		<path class="st4" d="M71.2,55.9c1.8,1.6,3.2,3.6,3.9,5.9"/>
		<g>
			<path class="st5" d="M62.4,68.2l-6.2,0l0-1.3l2.2-2.3c0.7-0.7,1.1-1.1,1.3-1.4c0.2-0.3,0.3-0.5,0.4-0.7s0.1-0.5,0.1-0.7
				c0-0.4-0.1-0.6-0.3-0.8s-0.5-0.3-0.8-0.3c-0.3,0-0.7,0.1-1,0.2c-0.3,0.2-0.7,0.4-1,0.7l-1-1.2c0.4-0.4,0.8-0.6,1.1-0.8
				c0.3-0.2,0.6-0.3,0.9-0.4s0.7-0.1,1.1-0.1c0.6,0,1,0.1,1.5,0.3c0.4,0.2,0.8,0.5,1,0.9c0.2,0.4,0.4,0.8,0.4,1.3
				c0,0.4-0.1,0.8-0.2,1.2c-0.1,0.4-0.4,0.7-0.7,1.1c-0.3,0.4-0.8,0.9-1.6,1.6l-1.1,1.1l0,0.1l3.9,0L62.4,68.2z"/>
			<path class="st5" d="M66.5,62.5c0.9,0,1.5,0.2,2.1,0.7c0.5,0.5,0.8,1.1,0.8,2c0,1-0.3,1.8-0.9,2.3c-0.6,0.5-1.5,0.8-2.6,0.8
				c-1,0-1.8-0.2-2.4-0.5l0-1.6c0.3,0.2,0.7,0.3,1.1,0.4c0.4,0.1,0.8,0.2,1.2,0.2c1.1,0,1.7-0.5,1.7-1.4c0-0.9-0.6-1.3-1.8-1.3
				c-0.2,0-0.5,0-0.7,0.1c-0.3,0-0.5,0.1-0.6,0.1l-0.7-0.4l0.3-4.5l4.8,0l0,1.6l-3.2,0l-0.2,1.7l0.2,0
				C65.9,62.6,66.2,62.5,66.5,62.5z"/>
		</g>
		<g>
			<path class="st5" d="M60.8,73.9l-0.8,0l0-2.3l-0.7,0c-0.1,0.6-0.1,1.1-0.2,1.4c-0.1,0.3-0.2,0.5-0.3,0.7
				c-0.1,0.1-0.3,0.2-0.5,0.2c-0.2,0-0.3,0-0.4-0.1l0-0.6c0.1,0,0.2,0.1,0.2,0.1c0.1,0,0.2-0.1,0.2-0.2c0.1-0.1,0.1-0.4,0.2-0.7
				s0.1-0.8,0.1-1.3l2.1,0L60.8,73.9z"/>
			<path class="st5" d="M62.9,73.9c-0.5,0-0.8-0.1-1.1-0.4s-0.4-0.6-0.4-1.1c0-0.5,0.1-0.8,0.4-1.1s0.6-0.4,1-0.4
				c0.4,0,0.7,0.1,0.9,0.3c0.2,0.2,0.3,0.5,0.3,0.9l0,0.4l-1.8,0c0,0.2,0.1,0.4,0.2,0.5c0.1,0.1,0.3,0.2,0.5,0.2
				c0.2,0,0.3,0,0.5-0.1c0.2,0,0.3-0.1,0.5-0.2l0,0.6c-0.1,0.1-0.3,0.1-0.4,0.2S63.1,73.9,62.9,73.9z M62.8,71.6
				c-0.2,0-0.3,0.1-0.4,0.2c-0.1,0.1-0.1,0.3-0.2,0.4l1.1,0c0-0.2-0.1-0.3-0.1-0.4C63.1,71.6,63,71.6,62.8,71.6z"/>
			<path class="st5" d="M67.1,71.1l0,0.6l-0.9,0l0,2.3l-0.8,0l0-2.3l-0.9,0l0-0.6L67.1,71.1z"/>
		</g>
	</g>
	<g>
		<line class="st1" x1="22.3" y1="23.2" x2="39.5" y2="23.2"/>
		<line class="st1" x1="22.5" y1="26.8" x2="47.4" y2="26.8"/>
		<g>
			<polyline class="st1" points="16.9,25 16.9,27.4 11.8,27.4 11.8,22.3 15.4,22.3 			"/>
			<polyline class="st1" points="13.1,23.8 14.6,26.1 17.1,22.5 			"/>
		</g>
	</g>
	<g>
		<line class="st1" x1="22.3" y1="34.8" x2="39.5" y2="34.8"/>
		<line class="st1" x1="22.5" y1="38.5" x2="47.4" y2="38.4"/>
		<g>
			<polyline class="st1" points="16.9,36.7 16.9,39 11.8,39 11.8,33.9 15.4,33.9 			"/>
			<polyline class="st1" points="13.1,35.4 14.6,37.7 17.1,34.2 			"/>
		</g>
	</g>
	<g>
		<line class="st1" x1="22.3" y1="46.3" x2="39.6" y2="46.3"/>
		<line class="st1" x1="22.5" y1="49.9" x2="47.4" y2="49.9"/>
		<g>
			<polyline class="st1" points="16.9,48.1 16.9,50.5 11.8,50.5 11.8,45.4 15.4,45.4 			"/>
			<polyline class="st1" points="13.1,46.9 14.6,49.2 17.1,45.7 			"/>
		</g>
	</g>
	<line class="st1" x1="22" y1="58.7" x2="33.9" y2="58.7"/>
	<line class="st1" x1="22.3" y1="62.4" x2="39" y2="62.3"/>
	<g>
		<polyline class="st1" points="17.1,59.5 17.1,61.8 12,61.9 12,56.7 15.6,56.7 		"/>
		<polyline class="st1" points="13.3,58.3 14.7,60.5 17.3,57 		"/>
	</g>
</g>
</svg>
